# xmcd
#
# Track frame offsets:
#	150
#	5313
#	10808
#	15311
#	22074
#	28986
#	33546
#	38405
#	42467
#	48864
#	53576
#	57557
#	63622
#	67742
#	73099
#	77685
#	81999
#
# Disc length: 1170 seconds
#
# Revision: 1
# Processed by: cddbd v1.5.1PL0 Copyright (c) Steve Scherf et al.
# Submitted via: EasyCDDAExtractor 5.0.6
#
DISCID=d6049011
DTITLE=Morrison, Van - Here Comes
DYEAR=2000
DGENRE=R&B
TTITLE0=Jump And Thump
TTITLE1=Drivin' Wheel
TTITLE2=Just Ball
TTITLE3=Hold On George
TTITLE4=Ring Worm
TTITLE5=Savoy Hollywood
TTITLE6=Freaky If You Got This Far
TTITLE7=All The Bits
TTITLE8=Blow In Your Nose
TTITLE9=Nose In Yor Blow
TTITLE10=La Mambo
TTITLE11=Go For Yourself
TTITLE12=Here Comes Dumb George
TTITLE13=Chickee Coo
TTITLE14=Do It
TTITLE15=Hang On Groovy
TTITLE16=Goodbye George
EXTD=
EXTT0=
EXTT1=
EXTT2=
EXTT3=
EXTT4=
EXTT5=
EXTT6=
EXTT7=
EXTT8=
EXTT9=
EXTT10=
EXTT11=
EXTT12=
EXTT13=
EXTT14=
EXTT15=
EXTT16=
PLAYORDER=
